<svg viewBox="0 0 512 512" xmlns="http://www.w3.org/2000/svg"><defs><clipPath id="a"><path d="M0 500h1024V0H0v500z"/></clipPath></defs><g clip-path="url(#a)" transform="matrix(1.9184 0 0 -1.9184 -1219.225 743.263)"><path d="M887.72 387.45H650.29c-8.136 0-14.73-6.594-14.73-14.73V135.29c0-8.135 6.594-14.73 14.73-14.73h127.83v103.36h-34.782v40.28h34.782v29.704c0 34.472 21.054 53.243 51.806 53.243 14.73 0 27.39-1.096 31.08-1.586v-36.025l-21.328-.01c-16.724 0-19.963-7.947-19.963-19.61V264.2h39.887l-5.193-40.28h-34.695V120.56h68.012c8.135 0 14.73 6.595 14.73 14.73v237.43c0 8.136-6.595 14.73-14.73 14.73" fill="#fff"/></g></svg>