<?xml version="1.0" encoding="UTF-8"?>
<svg version="1.1" viewBox="0 0 512 512" xml:space="preserve" xmlns="http://www.w3.org/2000/svg" xmlns:cc="http://creativecommons.org/ns#" xmlns:dc="http://purl.org/dc/elements/1.1/" xmlns:rdf="http://www.w3.org/1999/02/22-rdf-syntax-ns#"><metadata><rdf:RDF><cc:Work rdf:about=""><dc:format>image/svg+xml</dc:format><dc:type rdf:resource="http://purl.org/dc/dcmitype/StillImage"/><dc:title/></cc:Work></rdf:RDF></metadata><defs><clipPath id="a"><path d="m0 500h1024v-500h-1024v500z"/></clipPath></defs><g transform="matrix(1.25,0,0,-1.25,0,512)"><g transform="matrix(1.5347 0 0 1.5347 -975.38 -185.01)"><g clip-path="url(#a)"><g transform="translate(887.72 387.45)"><path d="m0 0h-237.43c-8.136 0-14.73-6.594-14.73-14.73v-237.43c0-8.135 6.594-14.731 14.73-14.731h127.83v103.36h-34.782v40.28h34.782v29.705c0 34.472 21.054 53.243 51.806 53.243 14.731 0 27.391-1.096 31.08-1.586v-36.026l-21.328-0.01c-16.724 0-19.963-7.947-19.963-19.609v-25.717h39.887l-5.193-40.28h-34.694v-103.36h68.012c8.135 0 14.73 6.596 14.73 14.731v237.43c0 8.136-6.595 14.73-14.73 14.73" fill="#fff"/></g></g></g></g></svg>
